<svg xmlns="http://www.w3.org/2000/svg" xmlns:xlink="http://www.w3.org/1999/xlink" width="160" height="192" viewBox="0 0 160 192">
  <defs>
    <path id="logo---icon-a" d="M154.711,80.207 C153.317,77.73 150.178,76.853 147.701,78.247 L110.218,99.35 L110.218,89.374 C114.355,86.894 118.375,84.482 121.258,82.748 C121.292,82.728 121.325,82.708 121.358,82.687 C125.431,80.11 130.03,76.85 133.273,72.217 C137.721,65.86 138.3,58.619 134.946,51.276 C132.967,46.944 129.381,43.879 124.849,42.648 C120.066,41.348 111.98,41.471 100.624,49.437 C98.297,51.069 97.733,54.279 99.366,56.607 C100.999,58.935 104.208,59.498 106.536,57.865 C112.756,53.502 118.448,51.576 122.15,52.583 C123.745,53.016 124.868,53.988 125.583,55.554 C128.709,62.397 125.995,67.56 115.903,73.959 C114.3,74.923 112.345,76.098 110.22,77.372 L110.22,67.304 C110.22,64.461 107.916,62.157 105.073,62.157 C102.23,62.157 99.926,64.461 99.926,67.304 L99.926,83.543 C98.034,84.676 96.206,85.771 94.545,86.766 L94.545,61.688 C94.545,59.859 93.574,58.168 91.996,57.245 C90.416,56.321 88.467,56.306 86.873,57.203 L76.764,62.894 L76.764,48.205 L87.346,42.26 C87.42,42.218 87.492,42.175 87.564,42.13 C93.611,38.328 97.844,34.116 100.146,29.61 C102.396,25.205 102.737,20.492 101.106,16.339 C98.264,9.102 90.085,4.787 82.084,6.302 C78.42,6.995 66.469,10.827 66.469,31.02 L66.469,42.181 L31.661,61.736 C30.039,62.647 29.035,64.363 29.035,66.224 L29.035,145.059 L22.452,148.765 C2.463,160.025 3.891,171.314 5.433,175.645 C7.659,181.897 14.06,186.001 21.03,186.001 C22.031,186.001 23.044,185.916 24.057,185.741 C31.44,184.466 39.329,177.877 39.329,163.209 L39.329,151.077 L99.926,116.961 L99.926,126.855 L93.279,130.593 C77.544,138.854 79.773,149.884 80.833,153.072 C83.02,159.648 89.541,164.354 96.002,164.354 C96.69,164.354 97.379,164.301 98.061,164.19 C100.914,163.728 110.221,160.956 110.221,144.686 L110.221,132.876 L145.11,113.256 C147.588,111.863 148.467,108.724 147.074,106.247 C145.68,103.769 142.541,102.89 140.065,104.283 L110.221,121.065 L110.221,111.164 L152.754,87.218 C155.229,85.823 156.106,82.684 154.711,80.207 Z M76.762,31.02 C76.762,22.734 79.467,17.275 83.998,16.417 C84.425,16.336 84.857,16.297 85.287,16.297 C87.998,16.297 90.634,17.838 91.523,20.102 C92.95,23.734 89.374,28.804 82.188,33.349 L76.763,36.397 L76.762,31.02 L76.762,31.02 Z M29.033,163.209 C29.033,170.343 26.58,174.858 22.303,175.596 C19.257,176.12 15.973,174.562 15.129,172.192 C14.105,169.315 16.731,163.802 27.501,157.734 L29.032,156.872 L29.033,163.209 L29.033,163.209 Z M99.924,144.685 C99.924,150.015 98.546,153.682 96.413,154.027 C94.479,154.341 91.515,152.573 90.6,149.822 C89.481,146.457 92.221,142.76 98.118,139.678 C98.165,139.653 98.211,139.628 98.257,139.603 L99.925,138.665 L99.925,144.685 L99.924,144.685 Z M39.328,139.262 L39.328,69.235 L66.468,53.988 L66.468,68.688 L54.152,75.621 C45.103,80.426 41.359,88.23 44.138,96.511 C47.169,105.542 57.498,112.534 65.812,111.173 C68.381,110.754 76.763,108.34 76.763,94.901 L76.763,74.706 L84.25,70.491 L84.25,95.845 C84.25,97.698 85.246,99.409 86.859,100.323 C88.471,101.237 90.45,101.213 92.04,100.262 C92.121,100.213 95.424,98.237 99.925,95.541 L99.925,105.145 L39.328,139.262 Z M66.467,80.502 L66.467,94.902 C66.467,96.626 66.241,100.673 64.151,101.014 C61.052,101.521 55.417,97.767 53.896,93.236 C53.484,92.009 52.231,88.275 59.02,84.692 C59.061,84.67 59.102,84.648 59.142,84.625 L66.467,80.502 Z"/>
  </defs>
  <use fill="#595252" fill-rule="evenodd" xlink:href="#logo---icon-a"/>
</svg>
