<svg xmlns="http://www.w3.org/2000/svg" width="24" height="24" viewBox="0 0 24 24">
  <g id="Icon-/-system-/-image" fill="none" fill-rule="evenodd" stroke="none" stroke-width="1" opacity=".84">
    <path id="➠-BG-Icon" fill="#333" d="M17.9515304,9.84031609 L18.0606602,9.93933983 L21.0606602,12.9393398 C21.6464466,13.5251263 21.6464466,14.4748737 21.0606602,15.0606602 C20.5114854,15.609835 19.642423,15.6441584 19.0532622,15.1636304 L18.9393398,15.0606602 L16.939,13.06 L8.99654576,20.121114 C8.44004267,20.6157834 7.61248058,20.6234033 7.04846961,20.1596839 L6.93933983,20.0606602 L2.93933983,16.0606602 C2.35355339,15.4748737 2.35355339,14.5251263 2.93933983,13.9393398 C3.48851461,13.390165 4.35757702,13.3558416 4.94673776,13.8363696 L5.06066017,13.9393398 L8.06,16.939 L16.0034542,9.87888602 C16.5599573,9.38421661 17.3875194,9.37659672 17.9515304,9.84031609 Z M8,5 C9.65685425,5 11,6.34314575 11,8 C11,9.65685425 9.65685425,11 8,11 C6.34314575,11 5,9.65685425 5,8 C5,6.34314575 6.34314575,5 8,5 Z"/>
  </g>
</svg>
