<?xml version="1.0" encoding="UTF-8" standalone="no"?>
<!DOCTYPE svg PUBLIC "-//W3C//DTD SVG 1.1//EN" "http://www.w3.org/Graphics/SVG/1.1/DTD/svg11.dtd">
<svg width="100%" height="100%" viewBox="0 0 2400 2400" version="1.1" xmlns="http://www.w3.org/2000/svg" xmlns:xlink="http://www.w3.org/1999/xlink" xml:space="preserve" xmlns:serif="http://www.serif.com/" style="fill-rule:evenodd;clip-rule:evenodd;stroke-linejoin:round;stroke-miterlimit:2;">
    <g transform="matrix(1,0,0,1,-5490,0)">
        <g id="he" transform="matrix(1.03667,0,0,1.03667,5248.76,-1565.09)">
            <rect x="232.709" y="1509.74" width="2315.11" height="2315.11" style="fill:rgb(48,48,48);"/>
            <g transform="matrix(1.92916,0,0,1.92916,-2469.97,1510.99)">
                <path d="M1969.1,658.744C1967.88,683.605 1963.86,776.394 1908.06,877.589C1896.75,898.096 1808.87,1033 1783.12,1046.99C1766.47,1056.04 1786.13,1098.54 1797.11,1085.74C1811.24,1069.26 1881.76,986.562 1922.06,931.674C1923.64,929.266 1926.73,928.363 1929.35,929.544C1931.98,930.725 1933.35,933.64 1932.59,936.414C1919.76,983.736 1906.04,1052.21 1924.3,1043.24C1939.55,1035.75 1957.57,972.882 1969.5,924.943C1970.34,921.582 1973.49,919.325 1976.94,919.611C1980.39,919.897 1983.13,922.642 1983.4,926.094C1986.44,979.973 1990.04,1045.82 2000.77,1083.34C2004.46,1099.03 2042.4,1137.41 2034.64,1104.34C2027.49,1073.82 2005.46,928.63 2015.84,845.713C2023.09,787.725 2022.2,736.318 2014.23,671.837C2037.09,682.443 2104.27,780.896 2107.84,801C2115.43,843.632 2092.72,912.856 2119.47,912.069C2135.2,889.791 2123.36,864.319 2131.26,834.227C2139.37,826.744 2165.7,883.34 2183.84,903C2189.89,909.548 2196.93,923.676 2207.84,919C2208.34,898.992 2151.99,829.078 2154.41,820.873C2158.7,811.555 2223.53,867.52 2245.84,863C2255.84,851.336 2170.42,809.331 2175.84,803C2206.4,799.56 2269.77,810.069 2267.84,793C2247.45,778.058 2166.2,792.164 2175.84,779C2196.83,766.654 2247.11,753.935 2243.84,747C2236.59,737.428 2220.31,743.702 2209.84,747C2189.69,753.35 2170.04,766.776 2153.84,771C2112.76,781.718 2031.37,659.703 2021.92,635.859C2021.87,635.74 2013.1,612.958 2015.75,615.743C2026.98,627.543 2104.55,686.862 2121.81,687.211C2156.35,687.909 2190.36,635.5 2260.19,628C2303.19,623.381 2399.82,673.09 2425.49,660.22C2460.01,642.907 2542.79,485.785 2538.05,477.865C2535.39,473.431 2461.65,612.524 2417.92,638.626C2387.11,657.023 2314.43,604.09 2256.15,609.054C2212.74,612.75 2149.04,681.209 2119.37,677.636C2111.3,676.663 2021.38,620.9 2020.85,607.293C2020.68,602.953 2098.41,645.303 2119.95,643.997C2155.29,641.851 2192.52,574.298 2241,559.73C2289.48,545.162 2354.87,591 2394.07,563.091C2433.26,535.182 2478.86,398.625 2476.17,392.276C2471.4,381.051 2430.49,518.592 2390.78,544.601C2351.07,570.609 2285.26,522.229 2238.08,536.942C2190.89,551.655 2159.45,629.533 2127.07,634.409C2091.31,639.796 2029.65,598.203 2030.9,596.979C2032.16,595.756 2111.78,612.446 2129.54,600C2156.38,581.184 2186.26,517.887 2225.72,492.14C2265.19,466.393 2339.25,472.899 2368.81,436.105C2398.38,399.312 2410.18,280.334 2403.12,271.379C2396.2,262.598 2388.15,390.441 2357.74,425.192C2327.33,459.944 2256.17,448.403 2217.8,473.651C2179.43,498.9 2155.79,565.788 2131.83,586.536C2108.67,606.594 2030.87,586.328 2031.62,583.072C2032.37,579.817 2110.8,570.291 2129.72,540.833C2146.35,514.94 2154.51,454.183 2185.61,423.135C2216.71,392.087 2291.22,388.693 2312.95,349.555C2334.67,310.418 2320.17,188.65 2309.64,180.91C2299.8,173.682 2326.49,300.179 2303.38,337.837C2280.27,375.495 2201.34,375.848 2170.97,406.858C2140.6,437.868 2143.72,505.969 2127.43,531.741C2116.43,549.162 2086.21,557.976 2073.24,561.495C2065.14,563.692 2029.76,571.282 2028.63,568.73C2027.49,566.179 2103.68,518.165 2112.69,498.216C2124.98,471.009 2118.06,414.21 2136.51,377.628C2155.91,339.185 2220.53,308.987 2231.24,265.682C2241.95,222.376 2215.67,123.954 2200.74,117.793C2187.95,112.514 2227.01,215.334 2214.59,257.497C2202.16,299.66 2137.77,328.254 2118.75,366.248C2100.8,402.113 2118.14,462.664 2106.38,489.444C2097.55,509.545 2067.4,523.513 2055.64,531.449C2049.96,535.285 2018.81,559.29 2017.21,557.407C2015.61,555.523 2036.87,522.125 2040.89,516.223C2049.05,504.274 2080.53,487.353 2084.83,465.368C2090.37,436.984 2065.64,384.983 2074.14,345.924C2083.11,304.721 2141.13,262.784 2139.35,218.492C2137.57,174.199 2080.64,82.15 2063.49,80.167C2047.37,78.303 2123.37,168.829 2122.88,212.425C2122.39,256.02 2061.53,299.219 2052.3,339.615C2043.68,377.37 2079.64,428.73 2074.17,457.117C2069.63,480.665 2037.64,499.742 2027.72,512.06C2022.91,518.038 2007.34,550.823 2005.45,550.028C2003.55,549.232 2008.32,514.009 2010.23,505.63C2013.76,490.145 2037.33,462.144 2035.86,438.116C2034.11,409.328 2001.61,369.934 1999.72,332.898C1997.63,291.936 2046.26,233.884 2033.5,191.823C2020.73,149.762 1939.7,77.991 1923.13,80.531C1906.28,83.115 2000.8,149.625 2011.8,191.688C2022.79,233.751 1977.37,293.035 1979.13,333.329C1980.67,368.598 2020.64,404.649 2022.38,433.453C2023.91,458.672 2005.15,489.327 1999.57,505.733C1996.54,514.648 1993.61,549.292 1990.7,549.667C1983.75,550.561 1982.58,458.254 1975.72,433.294C1967.97,405.076 1936.78,375.048 1929.15,341.639C1920.2,302.415 1951.32,231.565 1927.58,194.39C1903.85,157.215 1800.8,112.275 1786.75,118.59C1773.8,124.406 1887.15,162.785 1908.62,200.654C1930.09,238.522 1897.75,309.765 1906.28,349.149C1913.42,382.159 1951.28,409.252 1959.8,436.96C1967.18,460.984 1965.07,494.957 1966.65,512.049C1967.49,521.205 1981.4,550.507 1977.64,552.825C1973.51,555.369 1962.7,546.692 1956.07,535.932C1941.38,512.099 1928.88,470.45 1919.29,454.249C1903.97,428.363 1866.43,409.486 1853.91,378.401C1838.71,340.652 1850.78,260.033 1821.07,227.754C1791.35,195.475 1688.52,173.674 1678.62,181.725C1666.68,191.441 1776.48,206.082 1803.97,239.872C1831.46,273.662 1821.53,351.404 1837.39,389.402C1850.44,420.66 1891.17,436.778 1907.57,463.385C1922.92,488.283 1937.14,528.808 1948.57,542.109C1955.04,549.632 1972.27,562.652 1969.46,566.409C1962.47,575.739 1900.82,517.301 1879.15,494.263C1857.65,471.404 1797.14,484.059 1783.99,442.034C1771.45,401.975 1762.02,318.533 1726.93,291.503C1691.85,264.473 1586.27,270.456 1576.47,283.856C1566,298.178 1681.13,276.951 1714.99,305.996C1748.85,335.041 1748.16,435.952 1772.96,470.723C1793.14,499.01 1847.13,488.626 1871.67,507.088C1893.75,523.696 1926.47,558.639 1940.38,566.291C1950.63,571.932 1964.2,575.107 1965.13,579.905C1966.1,584.986 1954.29,589.765 1940.37,584.662C1914.75,575.271 1877.74,544.488 1860.03,538.985C1830.46,529.798 1780.06,557.347 1751.61,535.019C1717.66,508.374 1694.88,409.017 1654.35,387.119C1613.82,365.22 1513.96,389.35 1508.42,403.63C1502.94,417.751 1602.96,377.92 1643.01,402.141C1683.17,426.434 1711.32,534.426 1748.59,556.787C1768.27,568.589 1824.87,541.019 1855.61,550.783C1876.35,557.372 1918.62,589.224 1939.65,595.904C1951.8,599.763 1963.5,593.851 1966.12,596.626C1970.17,600.914 1956.69,608.4 1942.59,606.094C1916.7,601.863 1863.08,583.537 1842.58,584.027C1802.28,584.99 1761.47,621.372 1723.84,606.927C1680.91,590.449 1624.24,488.223 1585.02,485.163C1547.01,482.197 1479.07,510.237 1476.46,514.797C1473.7,519.652 1545.5,500.149 1575.82,505.535C1624.25,514.14 1670.76,610.855 1715.09,626.426C1755.85,640.747 1799.09,601.37 1841.76,598.965C1874.58,597.115 1921.32,611.734 1946.93,616.629C1954.61,618.097 1969.36,610.013 1969.6,610.998C1970.25,613.59 1963.8,637.188 1962.65,638.496C1950.36,652.452 1909.34,668.803 1882,699.705C1863.57,720.543 1851,744.525 1827.07,756.931C1814.12,763.646 1798.19,765.19 1784.18,769.579C1769.97,774.026 1686.01,803.881 1680.8,821.503C1702.47,834.203 1709.14,817.507 1728.48,808.382C1749.31,798.549 1771.15,788.596 1791.2,787.089C1763.25,797.879 1742.5,812.95 1720.32,831.303C1707.47,841.936 1688,851.663 1685.36,867.72C1695.7,885.228 1753.71,810.825 1798.94,800.662C1769.14,836.274 1724.44,863.566 1706.59,908.086C1725.09,916.66 1731.32,892.853 1739.79,881.513C1755.08,861.017 1794.72,826.381 1811.25,819.975C1802.17,843.23 1770.8,887.116 1757.71,894.877C1748.17,900.535 1733.88,911.258 1734.36,923.21C1759.34,930.306 1773.6,902.011 1787.74,886.023C1803.31,868.428 1820.09,849.017 1832.12,830.975C1831.97,866.701 1820.18,910.53 1847.43,927.171C1857.84,896.329 1844.87,841.877 1862.29,809.956C1876.94,783.105 1885.8,750.976 1904.64,722.01C1922.53,694.505 1950.28,669.752 1969.1,658.744Z" style="fill:rgb(53,229,155);fill-opacity:0.8;"/>
            </g>
        </g>
    </g>
</svg>
