<?xml version="1.0" encoding="UTF-8" standalone="no"?>
<!DOCTYPE svg PUBLIC "-//W3C//DTD SVG 1.1//EN" "http://www.w3.org/Graphics/SVG/1.1/DTD/svg11.dtd">
<svg width="100%" height="100%" viewBox="0 0 2400 2400" version="1.1" xmlns="http://www.w3.org/2000/svg" xmlns:xlink="http://www.w3.org/1999/xlink" xml:space="preserve" xmlns:serif="http://www.serif.com/" style="fill-rule:evenodd;clip-rule:evenodd;stroke-linejoin:round;stroke-miterlimit:2;">
    <g transform="matrix(1,0,0,1,-2840,0)">
        <g id="she" transform="matrix(1.03667,0,0,1.03667,2598.76,-1565.09)">
            <rect x="232.709" y="1509.74" width="2315.11" height="2315.11" style="fill:rgb(46,47,48);"/>
            <g transform="matrix(2.36248e-16,3.85823,-3.85823,2.36248e-16,848.184,2933.63)">
                <path d="M-24.375,-267.578C-15.323,-295.702 -10.175,-327.043 -1.165,-300.439C-0.34,-298.002 1.931,-272.796 -10.913,-260.025C2.163,-255.63 -24.636,-206.809 -53.659,-176.462C-55.048,-175.055 -55.26,-172.867 -54.167,-171.219C-53.074,-169.571 -50.976,-168.916 -49.14,-169.648C-18.319,-182.451 16.067,-198.961 43.42,-209.904C59.874,-216.487 81.439,-222.361 92.42,-237.904C106.484,-257.812 114.985,-280.793 127.502,-273.33C150.919,-263.165 136.744,-229.847 111.42,-219.704C101.274,-215.641 40.402,-184.122 33.42,-181.704C25.523,-178.969 38.604,-171.811 34.963,-168.943C33.672,-167.926 25.584,-168.35 25.354,-163.606C25.185,-160.129 33.477,-162.264 35.042,-161.696C38.625,-160.395 28.515,-152.786 36.395,-152.242C64.756,-150.288 129.838,-163.47 144.051,-170.157C159.56,-177.454 173.546,-171.954 190.939,-156.85C181.437,-142.96 163.276,-145.106 146.076,-140.913C103.507,-130.536 51.972,-127.292 43,-129.52C3.151,-123.363 -26.856,-129.15 -44.79,-135.134C-46.357,-135.659 -48.079,-135.037 -48.949,-133.632C-49.819,-132.227 -49.607,-130.408 -48.438,-129.241C-28.955,-108.266 1.22,-72.145 10.185,-56.702C13.265,-51.396 20.177,-42.214 13.185,-35.702C4.097,-37.556 -0.899,-45.556 -7.321,-51.435C-12.833,-56.481 -19.152,-51.278 -24.167,-56.92C-34.501,-68.545 -62.153,-134.696 -76.216,-143.121C-82.366,-136.573 -83.622,-136.339 -81.74,-130.295C-70.33,-93.646 -67.825,-12.737 -78,-18C-84.593,-21.41 -77.394,-2.781 -79,4C-80.805,11.62 -85.881,21.233 -88,32C-91.4,49.279 -95.614,60.919 -102,76C-107.049,87.924 -108.051,103.688 -119,108C-123.565,102.518 -116.757,97.516 -115,93C-111.762,84.676 -108.982,74.809 -105,65C-101.3,55.886 -96.904,46.288 -95,37C-93.313,28.766 -93.458,20.104 -91,12C-89.925,8.453 -86.834,5.6 -86,2C-84.488,-4.523 -91.697,-23.726 -85,-20C-77.964,-16.086 -78.907,-92.544 -91,-131C-101.394,-98.147 -107.411,-62.401 -116,-29C-118.89,-17.761 -120.521,-5.163 -124,5C-127.73,15.896 -135.37,26.15 -139,37C-141.981,45.914 -143.055,56.551 -146,66C-148.296,73.366 -149.771,86.084 -160,88C-163.891,82.002 -156.75,76.184 -155,71C-148.975,53.146 -146.295,33.793 -139,16C-134.304,4.547 -130.097,-4.809 -127,-17C-118.605,-50.053 -108.501,-86.656 -102,-125C-104.152,-126.993 -110.662,-123.296 -114,-126C-116.663,-106.419 -119.85,-84.754 -127,-68C-129.703,-61.666 -135.068,-55.529 -138,-49C-141.304,-41.64 -142.437,-33.329 -146,-28C-152.032,-18.979 -163.912,-14.5 -170,-6C-181.037,11.859 -194.833,29.006 -207,47C-209.455,50.63 -213.348,57.877 -219,56C-219.767,45.808 -210.453,37.281 -204,31C-198.946,19.721 -191.589,10.744 -183,3C-176.757,-13.09 -162.822,-21.488 -152,-33C-150.015,-46.788 -138.613,-59.151 -133,-73C-129.59,-81.412 -127.751,-93.576 -125,-103C-122.411,-111.869 -116.85,-125.824 -127,-131C-131.22,-107.635 -142.094,-87.395 -156,-72C-158.401,-69.341 -162.522,-67.844 -165,-65C-172.877,-55.958 -177.148,-43.562 -184,-34C-188.808,-27.291 -197.48,-19.921 -204,-14C-216.328,-2.805 -226.457,10.221 -238,23C-242.492,27.974 -246.052,35.381 -253,37C-258.109,29.814 -248.639,23.279 -245,19C-240.282,13.451 -233.071,8.813 -229,4C-223.044,-3.042 -218.734,-11.266 -212,-18C-205.78,-24.22 -196.774,-29.709 -192,-36C-185.383,-44.718 -181.005,-56.956 -173,-67C-163.786,-78.561 -150.421,-90.27 -142,-105C-137.701,-112.521 -135.24,-126.509 -134,-138C-152.553,-129.886 -160.026,-110.692 -176,-100C-184.179,-85.943 -198.295,-76.548 -210,-64C-230.624,-41.891 -250.078,-23.264 -277,-6C-281.096,-3.374 -287.452,1.219 -293,0C-293.697,-8.223 -284.145,-11.725 -279,-15C-261.777,-25.967 -239.204,-39.049 -226,-55C-201.307,-84.833 -173.661,-111.339 -148,-139C-186.124,-126.38 -217.151,-107.098 -245,-83C-260.491,-69.595 -276.898,-57.851 -297,-48C-302.549,-45.281 -309.948,-38.557 -317,-43C-310.766,-52.053 -299.489,-55.036 -291,-60C-264.784,-75.33 -241.478,-95.548 -218,-115C-192.419,-129.753 -161.973,-139.64 -136,-154C-153.416,-156.57 -169.177,-145.639 -186,-142C-189.966,-141.143 -194.076,-141.726 -198,-141C-242.505,-132.769 -282.12,-103.62 -329,-106C-326.468,-115.363 -316.091,-112.564 -308,-114C-270.279,-120.695 -239.428,-140.919 -202,-148C-178.403,-152.464 -156.596,-159.749 -133,-165C-170.773,-183.036 -213.607,-164.509 -254,-157C-274.972,-153.102 -294.603,-151.335 -309,-146C-314.484,-143.968 -319.795,-136.923 -326,-142C-313.642,-158.534 -284.407,-159.165 -258,-164C-221.294,-170.72 -166.24,-190.805 -127,-172C-126.184,-177.942 -135.729,-179.843 -141,-182C-147.343,-184.597 -154.47,-188.021 -160,-189C-172.531,-191.219 -188.321,-188.887 -203,-190C-213.258,-190.778 -223.038,-193.553 -232,-193C-262.59,-191.115 -291.723,-178.048 -318,-182C-311.861,-192.406 -296.989,-189.214 -285,-191C-268.662,-193.435 -250.696,-199.014 -234,-200C-224.014,-200.59 -212.722,-197.948 -201,-197C-186.036,-195.789 -170.382,-198.078 -158,-196C-141.716,-193.267 -127.04,-184.996 -118,-177C-120.526,-192.937 -136.853,-198.201 -150,-206C-158.09,-210.799 -163.324,-215.718 -173,-218C-211.066,-226.979 -267.071,-223.475 -306,-232C-302.58,-242.097 -288.403,-237.994 -279,-237C-269.631,-236.01 -259.216,-232.837 -250,-232C-213.524,-228.688 -173.737,-230.382 -149,-216C-134.312,-207.461 -119.13,-197.475 -111,-183C-108.573,-182.665 -111.47,-175.438 -108,-179C-100.827,-181.533 -107.442,-189.131 -109,-192C-115.166,-203.354 -127.313,-212.612 -136,-221C-181.608,-244.059 -235.502,-258.83 -283,-280C-276.711,-288.317 -261.889,-279.446 -253,-276C-224.766,-265.052 -191.535,-254.473 -163,-243C-133.661,-231.204 -103.704,-209.829 -96,-179C-98.913,-219.432 -133.198,-236.296 -161,-259C-171.477,-267.556 -181.304,-278.646 -192,-287C-209.457,-300.633 -231.494,-305.351 -250,-316C-242.78,-325.288 -230.656,-316.097 -224,-313C-216.133,-309.34 -206.932,-305.285 -200,-301C-185.323,-291.928 -174.216,-277.989 -161,-268C-141.901,-253.563 -117.274,-240.013 -103,-218C-95.288,-206.107 -87.987,-196.373 -90,-179C-83.766,-203.677 -97.416,-221.07 -104,-242C-107.517,-253.178 -109.747,-264.728 -114,-273C-118.985,-282.695 -128.73,-293.888 -137,-304C-144.945,-313.717 -152.853,-328.146 -161,-334C-174.325,-343.574 -191.22,-346.44 -200,-361C-188.171,-365.099 -179.181,-351.454 -170,-346C-158.116,-338.94 -154.48,-338.802 -145,-326C-136.729,-314.831 -129.96,-305.789 -121,-294C-116.635,-288.256 -110.105,-282.89 -107,-277C-101.748,-267.04 -99.678,-252.664 -95,-240C-87.301,-219.153 -75.993,-201.978 -85,-176C-55.78,-219.494 -89.782,-276.11 -104,-315C-108.521,-327.366 -110.441,-340.493 -115,-352C-119.866,-364.283 -129.103,-376.133 -127,-389C-118.838,-388.545 -119.384,-378.909 -117,-373C-114.803,-367.552 -110.138,-361.719 -108,-356C-103.633,-344.315 -101.467,-331.136 -97,-319C-81.905,-277.991 -47.19,-218.48 -80,-169C-80.19,-168.19 -81.003,-168.003 -81,-167C-56.431,-183.632 -35.182,-234.001 -24.375,-267.578ZM-120,-136C-125.262,-140.209 -132.979,-156.366 -125,-165C-112.705,-178.305 -86.645,-171.528 -86,-152C-85.509,-137.105 -110,-128 -120,-136" style="fill:rgb(237,143,148);"/>
            </g>
        </g>
    </g>
</svg>
