<svg xmlns="http://www.w3.org/2000/svg" width="128" height="128" viewBox="0 0 128 128"><g fill="none" fill-rule="evenodd"><path fill="#FBFBE0" d="M20.5110816,-8.28672246e-16 L107.488918,8.28672246e-16 C114.621068,-4.81482439e-16 117.207358,0.742604889 119.814766,2.13706163 C122.422173,3.53151837 124.468482,5.57782696 125.862938,8.18523437 C127.257395,10.7926418 128,13.3789317 128,20.5110816 L128,107.488918 C128,114.621068 127.257395,117.207358 125.862938,119.814766 C124.468482,122.422173 122.422173,124.468482 119.814766,125.862938 C117.207358,127.257395 114.621068,128 107.488918,128 L20.5110816,128 C13.3789317,128 10.7926418,127.257395 8.18523437,125.862938 C5.57782696,124.468482 3.53151837,122.422173 2.13706163,119.814766 C0.742604889,117.207358 3.20988293e-16,114.621068 -5.52448164e-16,107.488918 L5.52448164e-16,20.5110816 C-3.20988293e-16,13.3789317 0.742604889,10.7926418 2.13706163,8.18523437 C3.53151837,5.57782696 5.57782696,3.53151837 8.18523437,2.13706163 C10.7926418,0.742604889 13.3789317,4.81482439e-16 20.5110816,-8.28672246e-16 Z"/><path fill="#121208" d="M73.4678595,46.352 L73.4678595,59.406 L73.5641208,59.406 C75.0462945,56.934 78.1534086,55.4005 80.9264836,55.4005 C88.7181467,55.4005 92.4963394,61.53425 92.4963394,69.00175 C92.4963394,75.87275 89.1501973,82.351 81.83434,82.351 C78.4876978,82.351 74.9022776,81.5125 73.276087,78.14875 L73.181576,78.14875 L73.181576,81.6615 L68.0177208,81.6615 L68.0169478,46.418 L48.964488,81.5845 L8.08794781,81.5845 L27.1766848,46.352 L73.4678595,46.352 Z M80.2071493,59.851 C75.6208618,59.851 73.2765871,63.46175 73.2765871,68.901 C73.2765871,74.0425 75.8113841,77.902 80.2086495,77.902 C85.1814822,77.902 87.0459507,73.3515 87.0459507,68.901 C87.0422003,64.2535 84.6994257,59.851 80.2071493,59.851 Z M106.906528,55.402 C112.6432,55.402 117.521272,58.369 118.045333,64.64975 L112.604446,64.64975 L112.595445,64.6495 C112.164894,61.53375 109.966387,59.8515 106.954534,59.8515 C104.132453,59.8515 100.165238,61.38525 100.165238,69.14925 C100.165238,73.4025 101.981451,77.903 106.715256,77.903 C109.870125,77.903 112.068633,75.7245 112.595445,72.06525 L118.045333,72.06525 C117.041216,78.69175 113.073751,82.351 106.715256,82.351 C98.969848,82.351 94.7150994,76.6655 94.7150994,69.14925 C94.7150994,61.43525 98.7788256,55.402 106.906528,55.402 Z"/></g></svg>