<svg xmlns="http://www.w3.org/2000/svg" width="128" height="128" viewBox="0 0 128 128"><g fill="none" fill-rule="evenodd"><path fill="#FBFBE0" d="M20.5110816,-8.28672246e-16 L107.488918,8.28672246e-16 C114.621068,-4.81482439e-16 117.207358,0.742604889 119.814766,2.13706163 C122.422173,3.53151837 124.468482,5.57782696 125.862938,8.18523437 C127.257395,10.7926418 128,13.3789317 128,20.5110816 L128,107.488918 C128,114.621068 127.257395,117.207358 125.862938,119.814766 C124.468482,122.422173 122.422173,124.468482 119.814766,125.862938 C117.207358,127.257395 114.621068,128 107.488918,128 L20.5110816,128 C13.3789317,128 10.7926418,127.257395 8.18523437,125.862938 C5.57782696,124.468482 3.53151837,122.422173 2.13706163,119.814766 C0.742604889,117.207358 3.20988293e-16,114.621068 -5.52448164e-16,107.488918 L5.52448164e-16,20.5110816 C-3.20988293e-16,13.3789317 0.742604889,10.7926418 2.13706163,8.18523437 C3.53151837,5.57782696 5.57782696,3.53151837 8.18523437,2.13706163 C10.7926418,0.742604889 13.3789317,4.81482439e-16 20.5110816,-8.28672246e-16 Z"/><path fill="#121208" fill-rule="nonzero" d="M40,80 C17.925,80 0,62.075 0,40 C0,17.925 17.925,0 40,0 C62.075,0 80,17.925 80,40 C80,62.075 62.075,80 40,80 L40,80 Z M73.7666667,45.4583333 C72.6166667,45.075 63.225,42.3083333 52.4583333,44 C56.9166667,56.3083333 58.7666667,66.3083333 59.075,68.3833333 C66.7666667,63.15 72.2333333,55 73.7666667,45.4583333 L73.7666667,45.4583333 Z M53.3083333,71.5416667 C52.7666667,68.5416667 50.85,58.0833333 46,45.6166667 C45.925,45.6166667 45.85,45.6916667 45.7666667,45.6916667 C26.4583333,52.3833333 19.6166667,65.7666667 19,67 C24.7666667,71.5416667 32.075,74.2333333 40,74.2333333 C44.7666667,74.2333333 49.2333333,73.2333333 53.3083333,71.5416667 L53.3083333,71.5416667 Z M14.6166667,62.925 C15.3833333,61.6166667 24.7666667,46.075 42.3833333,40.3833333 C42.8416667,40.2333333 43.3083333,40.075 43.7666667,40 C42.9166667,38.075 42,36.075 41,34.2333333 C23.925,39.3083333 7.38333333,39.1583333 5.925,39.0833333 C5.925,39.4666667 5.925,39.775 5.925,40.1583333 C5.85,48.85 9.15,56.85 14.6166667,62.925 L14.6166667,62.925 Z M6.54166667,33.0750882 C8.08333333,33.0750882 22.1583333,33.15 38.1583333,28.925 C32.4666667,18.85 26.3916667,10.3833333 25.4666667,9.15833333 C15.925,13.6166667 8.76666667,22.4583333 6.54166667,33.0750882 L6.54166667,33.0750882 Z M32,6.85 C32.925,8.08333333 39.15,16.5416667 44.7666667,26.85 C56.9166667,22.3083333 62,15.3916667 62.6166667,14.4666667 C56.6166667,9.08333333 48.6166667,5.85 40,5.85 C37.2333333,5.925 34.5416667,6.23333333 32,6.85 L32,6.85 Z M66.4583333,18.4583333 C65.7666667,19.4583333 60,26.7666667 47.3833333,31.9166667 C48.15,33.5333333 48.925,35.225 49.6166667,36.8416667 C49.85,37.4583333 50.075,37.9916667 50.3833333,38.6083333 C61.7666667,37.15 73.075,39.4583333 74.15,39.6833333 C74.075,31.6916667 71.2333333,24.2333333 66.4583333,18.4583333 L66.4583333,18.4583333 Z" transform="translate(24 24)"/></g></svg>