<svg xmlns="http://www.w3.org/2000/svg" width="128" height="128" viewBox="0 0 128 128"><g fill="none" fill-rule="evenodd"><path fill="#FBFBE0" d="M20.5110816,-8.28672246e-16 L107.488918,8.28672246e-16 C114.621068,-4.81482439e-16 117.207358,0.742604889 119.814766,2.13706163 C122.422173,3.53151837 124.468482,5.57782696 125.862938,8.18523437 C127.257395,10.7926418 128,13.3789317 128,20.5110816 L128,107.488918 C128,114.621068 127.257395,117.207358 125.862938,119.814766 C124.468482,122.422173 122.422173,124.468482 119.814766,125.862938 C117.207358,127.257395 114.621068,128 107.488918,128 L20.5110816,128 C13.3789317,128 10.7926418,127.257395 8.18523437,125.862938 C5.57782696,124.468482 3.53151837,122.422173 2.13706163,119.814766 C0.742604889,117.207358 3.20988293e-16,114.621068 -5.52448164e-16,107.488918 L5.52448164e-16,20.5110816 C-3.20988293e-16,13.3789317 0.742604889,10.7926418 2.13706163,8.18523437 C3.53151837,5.57782696 5.57782696,3.53151837 8.18523437,2.13706163 C10.7926418,0.742604889 13.3789317,4.81482439e-16 20.5110816,-8.28672246e-16 Z"/><path fill="#121208" d="M40,0 C17.9069289,0 0,17.8992419 0,39.9909526 C0,57.6545713 11.4610847,72.6450848 27.3602917,77.9344205 C29.3598852,78.3000427 30.0914438,77.0650519 30.0914438,76.0088098 C30.0914438,75.0581918 30.0589301,72.5475855 30.0345448,69.2082353 C18.9067256,71.6213424 16.5576097,63.8457752 16.5576097,63.8457752 C14.7368416,59.2226846 12.1194875,57.9958187 12.1194875,57.9958187 C8.48607977,55.5177122 12.3958541,55.5664618 12.3958541,55.5664618 C16.4112979,55.8508347 18.5246895,59.6858062 18.5246895,59.6858062 C22.0930698,65.7957607 27.8886396,64.0326488 30.1645996,63.0089064 C30.5303789,60.4251757 31.5626894,58.6620638 32.7006695,57.6626962 C23.8162967,56.6470788 14.4767319,53.2183543 14.4767319,37.8947182 C14.4767319,33.5316256 16.0373902,29.9566522 18.5978453,27.161673 C18.1832954,26.1460556 16.8177194,22.0835858 18.9880099,16.5830017 C18.9880099,16.5830017 22.345051,15.5105097 29.9857742,20.6860962 C33.1802468,19.8004778 36.6023153,19.3536061 40,19.3373562 C43.3976819,19.3536061 46.8197505,19.7923528 50.014223,20.6860962 C57.6549462,15.5105097 61.0038589,16.5830017 61.0038589,16.5830017 C63.1904063,22.0917107 61.8167018,26.1541805 61.4021519,27.161673 C63.962607,29.9566522 65.5151369,33.5235007 65.5151369,37.8947182 C65.5151369,53.258979 56.1593153,56.6389538 47.2505572,57.6301964 C48.6892891,58.8651873 49.9654524,61.3026691 49.9654524,65.0320164 C49.9654524,70.3782266 49.9166819,74.6925696 49.9166819,76.0006848 C49.9166819,77.0731769 50.640112,78.3162926 52.6640908,77.9262955 C68.5470409,72.6288349 80,57.6464463 80,39.9909526 C80.0081257,17.8992419 62.0930684,0 40,0 Z" transform="translate(24 25)"/></g></svg>