<svg xmlns="http://www.w3.org/2000/svg" width="128" height="128" viewBox="0 0 128 128"><g fill="none" fill-rule="evenodd"><path fill="#FBFBE0" d="M20.5110816,-8.28672246e-16 L107.488918,8.28672246e-16 C114.621068,-4.81482439e-16 117.207358,0.742604889 119.814766,2.13706163 C122.422173,3.53151837 124.468482,5.57782696 125.862938,8.18523437 C127.257395,10.7926418 128,13.3789317 128,20.5110816 L128,107.488918 C128,114.621068 127.257395,117.207358 125.862938,119.814766 C124.468482,122.422173 122.422173,124.468482 119.814766,125.862938 C117.207358,127.257395 114.621068,128 107.488918,128 L20.5110816,128 C13.3789317,128 10.7926418,127.257395 8.18523437,125.862938 C5.57782696,124.468482 3.53151837,122.422173 2.13706163,119.814766 C0.742604889,117.207358 3.20988293e-16,114.621068 -5.52448164e-16,107.488918 L5.52448164e-16,20.5110816 C-3.20988293e-16,13.3789317 0.742604889,10.7926418 2.13706163,8.18523437 C3.53151837,5.57782696 5.57782696,3.53151837 8.18523437,2.13706163 C10.7926418,0.742604889 13.3789317,4.81482439e-16 20.5110816,-8.28672246e-16 Z"/><path fill="#121208" fill-rule="nonzero" d="M64,28 C75.7251136,28 77.1138386,28.0446233 81.7442006,28.2558866 C86.0255945,28.4512877 88.3507112,29.1666546 89.8982322,29.7678486 C91.9477651,30.5644437 93.4107463,31.5161745 94.9472857,33.0527141 C96.4838255,34.5892538 97.4355563,36.0522348 98.2319771,38.1017678 C98.8333455,39.649289 99.5487121,41.9744055 99.7441136,46.2556251 C99.9553766,50.8861614 100,52.2748864 100,64 C100,75.7251136 99.9553766,77.1138386 99.7441136,81.7442006 C99.5487121,86.0255945 98.8333455,88.3507112 98.2319771,89.8982322 C97.4355563,91.9477651 96.4838255,93.4107463 94.9472857,94.9472857 C93.4107463,96.4838255 91.9477651,97.4355563 89.8982322,98.2319771 C88.3507112,98.8333455 86.0255945,99.5487121 81.7442006,99.7441136 C77.1145361,99.9553766 75.7258107,100 64,100 C52.2741893,100 50.8854639,99.9553766 46.2557994,99.7441136 C41.9744055,99.5487121 39.649289,98.8333455 38.1019421,98.2319771 C36.0522348,97.4355563 34.5892538,96.4838255 33.0527141,94.9472857 C31.5161745,93.4107463 30.5644437,91.9477651 29.7680229,89.8982322 C29.1666546,88.3507112 28.4512877,86.0255945 28.2558866,81.744375 C28.0446233,77.1138386 28,75.7251136 28,64 C28,52.2748864 28.0446233,50.8861614 28.2558866,46.2557994 C28.4512877,41.9744055 29.1666546,39.649289 29.7680229,38.1017678 C30.5644437,36.0522348 31.5161745,34.5892538 33.0527141,33.0527141 C34.5892538,31.5161745 36.0522348,30.5644437 38.1019421,29.7678486 C39.649289,29.1666546 41.9744055,28.4512877 46.2556251,28.2558866 C50.8861614,28.0446233 52.2748864,28 64,28 Z M64.0872145,41.5210603 C51.6244231,41.5210603 41.5212346,51.624249 41.5212346,64.0870402 C41.5212346,76.5498313 51.6244231,86.65302 64.0872145,86.65302 C76.5500057,86.65302 86.6531944,76.5498313 86.6531944,64.0870402 C86.6531944,51.624249 76.5500057,41.5210603 64.0872145,41.5210603 Z M64.0872145,78.7351722 C55.9973722,78.7351722 49.4390825,72.1768825 49.4390825,64.0870402 C49.4390825,55.9971978 55.9973722,49.4389081 64.0872145,49.4389081 C72.1770569,49.4389081 78.7353466,55.9971978 78.7353466,64.0870402 C78.7353466,72.1768825 72.1770569,78.7351722 64.0872145,78.7351722 Z M92.5778531,40.4754459 C92.5778531,37.588273 90.2374724,35.2478922 87.3502993,35.2478922 C84.4631266,35.2478922 82.1225728,37.588273 82.1225728,40.4754459 C82.1225728,43.3626187 84.4631266,45.7031724 87.3502993,45.7031724 C90.2374724,45.7031724 92.5778531,43.3626187 92.5778531,40.4754459 Z"/></g></svg>