<svg xmlns="http://www.w3.org/2000/svg" width="128" height="128" viewBox="0 0 128 128"><g fill="none" fill-rule="evenodd"><path fill="#FBFBE0" d="M20.5110816,-8.28672246e-16 L107.488918,8.28672246e-16 C114.621068,-4.81482439e-16 117.207358,0.742604889 119.814766,2.13706163 C122.422173,3.53151837 124.468482,5.57782696 125.862938,8.18523437 C127.257395,10.7926418 128,13.3789317 128,20.5110816 L128,107.488918 C128,114.621068 127.257395,117.207358 125.862938,119.814766 C124.468482,122.422173 122.422173,124.468482 119.814766,125.862938 C117.207358,127.257395 114.621068,128 107.488918,128 L20.5110816,128 C13.3789317,128 10.7926418,127.257395 8.18523437,125.862938 C5.57782696,124.468482 3.53151837,122.422173 2.13706163,119.814766 C0.742604889,117.207358 3.20988293e-16,114.621068 -5.52448164e-16,107.488918 L5.52448164e-16,20.5110816 C-3.20988293e-16,13.3789317 0.742604889,10.7926418 2.13706163,8.18523437 C3.53151837,5.57782696 5.57782696,3.53151837 8.18523437,2.13706163 C10.7926418,0.742604889 13.3789317,4.81482439e-16 20.5110816,-8.28672246e-16 Z"/><path fill="#121208" fill-rule="nonzero" d="M58.8088662,83.6451366 L55.5827749,74.8559614 C55.5827749,74.8559614 50.3404731,80.7159276 42.4791445,80.7159276 C35.5230058,80.7159276 30.5842362,74.6539203 30.5842362,64.954786 C30.5842362,52.5280968 36.8332916,48.0828054 42.9831005,48.0828054 C51.8531137,48.0828054 54.6752678,53.841364 57.0950293,61.2170255 L60.3211206,71.320242 C63.5460534,81.1196227 69.5942987,89 87.0327238,89 C99.5331517,89 108,85.161219 108,75.0583895 C108,66.8749506 103.362446,62.6313133 94.6932424,60.6105152 L88.2422184,59.1962274 C83.8074049,58.1860219 82.4971191,56.3672649 82.4971191,53.3362612 C82.4971191,49.9011754 85.2180957,47.8803773 89.6540678,47.8803773 C94.4924323,47.8803773 97.1130039,49.6991343 97.516555,54.0434051 L107.596449,52.8307714 C106.790119,43.7381475 100.540678,40 90.2588151,40 C81.1872194,40 72.3164339,43.4350859 72.3164339,54.4474873 C72.3164339,61.317659 75.6429302,65.6623169 84.0086011,67.682728 L90.8639485,69.2986698 C96.0046867,70.5113035 97.7177512,72.6327351 97.7177512,75.5631053 C97.7177512,79.3004787 94.0892675,80.816174 87.2346924,80.816174 C77.053621,80.816174 72.8207761,75.4616977 70.4010146,68.0860361 L67.0745183,57.9835937 C62.8416734,44.8493736 56.0871172,40 42.6803407,40 C27.8628734,40 20,49.3956856 20,65.3584812 C20,80.7155405 27.8628734,89 41.9755745,89 C53.3645958,89 58.8088662,83.6451366 58.8088662,83.6451366 L58.8088662,83.6451366 Z"/></g></svg>