<svg xmlns="http://www.w3.org/2000/svg" width="128" height="128" viewBox="0 0 128 128"><g fill="none" fill-rule="evenodd"><path fill="#FBFBE0" d="M20.5110816,-8.28672246e-16 L107.488918,8.28672246e-16 C114.621068,-4.81482439e-16 117.207358,0.742604889 119.814766,2.13706163 C122.422173,3.53151837 124.468482,5.57782696 125.862938,8.18523437 C127.257395,10.7926418 128,13.3789317 128,20.5110816 L128,107.488918 C128,114.621068 127.257395,117.207358 125.862938,119.814766 C124.468482,122.422173 122.422173,124.468482 119.814766,125.862938 C117.207358,127.257395 114.621068,128 107.488918,128 L20.5110816,128 C13.3789317,128 10.7926418,127.257395 8.18523437,125.862938 C5.57782696,124.468482 3.53151837,122.422173 2.13706163,119.814766 C0.742604889,117.207358 3.20988293e-16,114.621068 -5.52448164e-16,107.488918 L5.52448164e-16,20.5110816 C-3.20988293e-16,13.3789317 0.742604889,10.7926418 2.13706163,8.18523437 C3.53151837,5.57782696 5.57782696,3.53151837 8.18523437,2.13706163 C10.7926418,0.742604889 13.3789317,4.81482439e-16 20.5110816,-8.28672246e-16 Z"/><path fill="#121208" fill-rule="nonzero" d="M16.1245313,72 L1.20259061,72 L1.20259061,23.8988841 L16.1245313,23.8988841 L16.1245313,72 L16.1245313,72 Z M8.62265652,17.3646094 C3.90228383,17.3646094 0,13.4538829 0,8.64131177 C0,3.82874061 3.90228383,0 8.62265652,0 C13.4248381,0 17.245313,3.91072649 17.245313,8.64131177 C17.245313,13.3718971 13.4248381,17.3646094 8.62265652,17.3646094 Z M71.9918191,72 L57.0698784,72 L57.0698784,48.6258256 C57.0698784,43.0671829 56.9962504,35.8524254 49.3471196,35.8524254 C41.6243609,35.8524254 40.4217703,41.9357777 40.4217703,48.1749032 L40.4217703,72 L25.4998296,72 L25.4998296,23.8988841 L39.7509374,23.8988841 L39.7509374,30.5151446 L39.9800023,30.5151446 C42.0006817,26.7601913 46.8028633,22.7756775 54.0756732,22.7756775 C69.1530508,22.7756775 72,32.7697563 72,45.6989296 L72,72 L71.9918191,72 L71.9918191,72 Z" transform="translate(28 23)"/></g></svg>