<svg xmlns="http://www.w3.org/2000/svg" width="128" height="128" viewBox="0 0 128 128"><g fill="none" fill-rule="evenodd"><path fill="#FBFBE0" d="M20.5110816,-8.28672246e-16 L107.488918,8.28672246e-16 C114.621068,-4.81482439e-16 117.207358,0.742604889 119.814766,2.13706163 C122.422173,3.53151837 124.468482,5.57782696 125.862938,8.18523437 C127.257395,10.7926418 128,13.3789317 128,20.5110816 L128,107.488918 C128,114.621068 127.257395,117.207358 125.862938,119.814766 C124.468482,122.422173 122.422173,124.468482 119.814766,125.862938 C117.207358,127.257395 114.621068,128 107.488918,128 L20.5110816,128 C13.3789317,128 10.7926418,127.257395 8.18523437,125.862938 C5.57782696,124.468482 3.53151837,122.422173 2.13706163,119.814766 C0.742604889,117.207358 3.20988293e-16,114.621068 -5.52448164e-16,107.488918 L5.52448164e-16,20.5110816 C-3.20988293e-16,13.3789317 0.742604889,10.7926418 2.13706163,8.18523437 C3.53151837,5.57782696 5.57782696,3.53151837 8.18523437,2.13706163 C10.7926418,0.742604889 13.3789317,4.81482439e-16 20.5110816,-8.28672246e-16 Z"/><path fill="#121208" fill-rule="nonzero" d="M25.8490013,50 L31.3365642,75.7413548 L32.6119465,75.7413548 L38.0986921,50 L47.9476934,50 L47.9476934,77 L42.9680767,77 L42.9680767,54.4773401 L43.895191,51.2586452 L42.288261,51.2586452 L36.5697453,77 L27.4169056,77 L21.6589897,51.2586452 L20.0919026,51.2586452 L20.9796167,54.4773401 L20.9796167,77 L16,77 L16,50 L25.8490013,50 Z M112,50.1340012 L112,55.8018549 L101.029846,63.500422 L112,71.1977062 L112,76.866404 L99.0591195,67.6345382 L97.6684651,67.6345382 L84.7661676,76.866404 L84.7661676,71.197301 L95.69859,63.500422 L84.7661676,55.802699 L84.7661676,50.1340012 L97.6684651,59.4036803 L99.0591195,59.4036803 L112,50.1340012 Z M80.5235088,61.0425863 L80.5235088,65.9579201 L53.2176186,65.9579201 L53.2176186,61.0425863 L80.5235088,61.0425863 Z"/></g></svg>