<svg xmlns="http://www.w3.org/2000/svg" width="128" height="128" viewBox="0 0 128 128"><g fill="none" fill-rule="evenodd"><path fill="#FBFBE0" d="M64,0 C28.6,0 0,28.6 0,64 C0,99.4 28.6,128 64,128 C99.4,128 128,99.4 128,64 C128,28.6 99.4,0 64,0 Z"/><path fill="#121208" fill-rule="nonzero" d="M47.8,49.6 C50.35,49.6 52.45,51.55 52.45,54.25 L52.45,68.35 L41.65,80.2 C40.75,80.95 39.4,81.55 38.2,81.55 C37.15,81.55 35.95,81.1 35.05,80.35 C33.1,78.7 33.1,75.7 34.75,73.9 L43.15,64.75 L43.15,54.25 C43.15,51.7 45.1,49.6 47.8,49.6 Z M61.75,50.95 L76.45,66.4 C78.25,68.05 78.25,71.05 76.45,72.85 C74.65,74.5 71.8,74.5 70,72.7 L63.1,65.5 L63.1,70.6 C63.1,71.8 62.65,72.85 61.9,73.75 L56.05,80.05 C55.15,81.1 53.95,81.55 52.6,81.55 C51.55,81.55 50.35,81.1 49.45,80.35 C47.65,78.7 47.5,75.7 49.3,73.9 L53.95,68.95 L53.95,54.25 C53.95,52.3 55,50.65 56.8,49.9 C58.45,49.15 60.55,49.6 61.75,50.95 Z M76.6,51.1 L91.3,66.55 C92.95,68.05 92.95,71.05 91.15,72.85 C90.25,73.6 89.2,74.2 88,74.2 C86.8,74.2 85.6,73.75 84.7,72.85 L70,57.4 C68.35,55.6 68.35,52.75 70.15,50.95 C71.95,49.3 74.8,49.3 76.6,51.1 Z M91.15,50.95 L105.85,66.4 C107.5,68.2 107.5,71.05 105.7,72.85 C104.8,73.6 103.75,74.05 102.55,74.05 C101.35,74.05 100.15,73.6 99.25,72.7 L84.55,57.25 C82.9,55.45 82.9,52.6 84.7,50.8 C86.5,49.15 89.35,49.15 91.15,50.95 Z M31.15,49.6 C37,49.6 41.5,54.25 41.5,59.95 L41.5,64 L38.5,67.3 C36.55,69.25 34,70.45 31.15,70.45 C25.45,70.45 20.8,65.65 20.8,59.95 C20.8,54.1 25.45,49.6 31.15,49.6 Z M31.3,57.55 C29.95,57.55 29.05,58.6 29.05,59.8 C29.05,61.15 30.1,62.05 31.3,62.05 C32.65,62.05 33.55,61 33.55,59.8 C33.55,58.6 32.65,57.55 31.3,57.55 Z"/></g></svg>