<svg xmlns="http://www.w3.org/2000/svg" width="128" height="128" viewBox="0 0 128 128"><g fill="none" fill-rule="evenodd"><path fill="#FBFBE0" d="M20.5110816,-8.28672246e-16 L107.488918,8.28672246e-16 C114.621068,-4.81482439e-16 117.207358,0.742604889 119.814766,2.13706163 C122.422173,3.53151837 124.468482,5.57782696 125.862938,8.18523437 C127.257395,10.7926418 128,13.3789317 128,20.5110816 L128,107.488918 C128,114.621068 127.257395,117.207358 125.862938,119.814766 C124.468482,122.422173 122.422173,124.468482 119.814766,125.862938 C117.207358,127.257395 114.621068,128 107.488918,128 L20.5110816,128 C13.3789317,128 10.7926418,127.257395 8.18523437,125.862938 C5.57782696,124.468482 3.53151837,122.422173 2.13706163,119.814766 C0.742604889,117.207358 3.20988293e-16,114.621068 -5.52448164e-16,107.488918 L5.52448164e-16,20.5110816 C-3.20988293e-16,13.3789317 0.742604889,10.7926418 2.13706163,8.18523437 C3.53151837,5.57782696 5.57782696,3.53151837 8.18523437,2.13706163 C10.7926418,0.742604889 13.3789317,4.81482439e-16 20.5110816,-8.28672246e-16 Z"/><path fill="#000" fill-rule="nonzero" d="M36.2438577,0.0675036003 C40.5747766,0 44.8808766,0.0400021335 49.1820127,0 C49.4426124,5.10277215 51.2643284,10.3005494 54.97229,13.9082418 C58.6728059,17.605939 63.9071371,19.2985293 69,19.8710598 L69,33.2942757 C64.2273025,33.1367673 59.4322679,32.136714 55.1013489,30.0666036 C53.2151034,29.2065577 51.4579168,28.0989986 49.7379587,26.9664382 C49.7156216,36.7069577 49.7776692,46.4349766 49.6759112,56.135494 C49.4177934,60.7957425 47.8914237,65.4334899 45.2010419,69.2736947 C40.8726049,75.6665356 33.3598876,79.8342579 25.6436543,79.9642649 C20.9106672,80.2367794 16.182644,78.9367101 12.1495532,76.5415823 C5.46579121,72.5713706 0.762586953,65.3034829 0.077582006,57.5030669 C-0.00183885735,55.835478 -0.0291397791,54.1703892 0.0378715743,52.5428023 C0.63352805,46.1999641 3.74831503,40.1321404 8.58306009,36.0044203 C14.0630997,31.1966639 21.7396225,28.9065417 28.9272106,30.261614 C28.994222,35.1993773 28.7981517,40.1321404 28.7981517,45.0699038 C25.5145954,43.9998467 21.6775749,44.2998627 18.8084963,46.3074698 C16.713771,47.6750427 15.1228718,49.7701545 14.2939165,52.1402809 C13.6089116,53.830371 13.8049819,55.7079712 13.8446923,57.5030669 C14.6314552,62.9733587 19.853377,67.5711039 25.4277288,67.0735773 C29.1232809,67.0335752 32.664955,64.87346 34.5909109,61.7107913 C35.2138683,60.6032322 35.9112828,59.4706718 35.9485113,58.1681024 C36.2736405,52.2052843 36.1445816,46.2674677 36.184292,40.3046496 C36.2115929,26.8664329 36.1445816,13.4657182 36.2463396,0.0700037336 L36.2438577,0.0675036003 Z" transform="translate(28 24)"/></g></svg>