<svg xmlns="http://www.w3.org/2000/svg" width="128" height="128" viewBox="0 0 128 128"><g fill="none" fill-rule="evenodd"><path fill="#FBFBE0" d="M20.5110816,-8.28672246e-16 L107.488918,8.28672246e-16 C114.621068,-4.81482439e-16 117.207358,0.742604889 119.814766,2.13706163 C122.422173,3.53151837 124.468482,5.57782696 125.862938,8.18523437 C127.257395,10.7926418 128,13.3789317 128,20.5110816 L128,107.488918 C128,114.621068 127.257395,117.207358 125.862938,119.814766 C124.468482,122.422173 122.422173,124.468482 119.814766,125.862938 C117.207358,127.257395 114.621068,128 107.488918,128 L20.5110816,128 C13.3789317,128 10.7926418,127.257395 8.18523437,125.862938 C5.57782696,124.468482 3.53151837,122.422173 2.13706163,119.814766 C0.742604889,117.207358 3.20988293e-16,114.621068 -5.52448164e-16,107.488918 L5.52448164e-16,20.5110816 C-3.20988293e-16,13.3789317 0.742604889,10.7926418 2.13706163,8.18523437 C3.53151837,5.57782696 5.57782696,3.53151837 8.18523437,2.13706163 C10.7926418,0.742604889 13.3789317,4.81482439e-16 20.5110816,-8.28672246e-16 Z"/><path fill="#121208" fill-rule="nonzero" d="M41.1497326,63.8964592 C39.7058824,64.6356213 36.8983957,65.2105252 34.8128342,65.2926543 C28.5561497,65.4569125 27.3529412,60.7755524 27.2727273,57.4082583 L27.2727273,32.5231335 L42.9946524,32.5231335 L42.9946524,20.368023 L27.3529412,20.368023 L27.3529412,0 L15.9625668,0 C15.802139,0 15.4812834,0.16425825 15.4010695,0.574903874 C14.7593583,6.81671737 11.8716578,17.739891 0,22.1748637 L0,32.5231335 L7.94117647,32.5231335 L7.94117647,58.6401952 C7.94117647,67.5922698 14.3582888,80.3222842 31.4438503,79.9937677 C37.2192513,79.9116385 43.5561497,77.4477648 45,75.3124075 L41.1497326,63.8964592" transform="translate(40 24)"/></g></svg>