<svg xmlns="http://www.w3.org/2000/svg" width="128" height="128" viewBox="0 0 128 128"><g fill="none" fill-rule="evenodd"><path fill="#FBFBE0" d="M20.5110816,-8.28672246e-16 L107.488918,8.28672246e-16 C114.621068,-4.81482439e-16 117.207358,0.742604889 119.814766,2.13706163 C122.422173,3.53151837 124.468482,5.57782696 125.862938,8.18523437 C127.257395,10.7926418 128,13.3789317 128,20.5110816 L128,107.488918 C128,114.621068 127.257395,117.207358 125.862938,119.814766 C124.468482,122.422173 122.422173,124.468482 119.814766,125.862938 C117.207358,127.257395 114.621068,128 107.488918,128 L20.5110816,128 C13.3789317,128 10.7926418,127.257395 8.18523437,125.862938 C5.57782696,124.468482 3.53151837,122.422173 2.13706163,119.814766 C0.742604889,117.207358 3.20988293e-16,114.621068 -5.52448164e-16,107.488918 L5.52448164e-16,20.5110816 C-3.20988293e-16,13.3789317 0.742604889,10.7926418 2.13706163,8.18523437 C3.53151837,5.57782696 5.57782696,3.53151837 8.18523437,2.13706163 C10.7926418,0.742604889 13.3789317,4.81482439e-16 20.5110816,-8.28672246e-16 Z"/><path fill="#121208" fill-rule="nonzero" d="M47.775,99 C80.9583333,99 99.1083333,71.6564991 99.1083333,47.9587983 C99.1083333,47.2296383 99.1083333,46.4093333 99.0166667,45.6801732 C102.591667,43.1281132 105.616667,40.0291831 108,36.383383 C104.7,37.841703 101.216667,38.753153 97.6416667,39.208878 C101.4,36.930253 104.241667,33.4667429 105.616667,29.2740727 C102.041667,31.3704078 98.1916667,32.8287278 94.1583333,33.6490329 C87.2833333,26.4485776 75.9166667,26.0839976 68.5833333,32.8287278 C63.9083333,37.203688 61.8916667,43.7661282 63.3583333,49.9639884 C48.875,49.2348284 35.3083333,42.3989531 26.1416667,31.1881178 C21.375,39.391168 23.7583333,49.8728434 31.7333333,55.1592536 C28.8916667,55.0681086 26.05,54.3389485 23.575,52.8806285 L23.575,53.0629185 C23.575,61.6305488 29.625,68.922149 38.0583333,70.6539041 C35.4,71.3830641 32.65,71.4742091 29.9,70.9273391 C32.2833333,78.2189393 39.0666667,83.2319145 46.7666667,83.4142045 C40.35,88.4271797 32.4666667,91.1615297 24.3083333,91.0703847 C22.8416667,91.0703847 21.4666667,90.9792397 20,90.7969497 C28.3416667,96.1745049 37.9666667,99 47.775,99"/></g></svg>